<svg width="39" height="35" viewBox="0 0 39 35" fill="none" xmlns="http://www.w3.org/2000/svg">
<path d="M15.6815 2.11134L3.8923 8.49759C0.112721 10.5451 0.112721 15.1276 3.8923 17.1751L15.6815 23.5613C17.7965 24.7151 21.2823 24.7151 23.3973 23.5613L35.1277 17.1751C38.8877 15.1276 38.8877 10.5613 35.1277 8.51384L23.3973 2.12759C21.2823 0.957589 17.7965 0.957589 15.6815 2.11134Z" stroke="#86C226" stroke-width="2" stroke-linecap="round" stroke-linejoin="round"/>
<path d="M7.02569 19.2551L7.0061 26.8764C7.0061 28.9401 8.92527 31.1501 11.2753 31.8001L17.5224 33.5226C18.5994 33.8151 20.3815 33.8151 21.4782 33.5226L27.7253 31.8001C30.0753 31.1501 31.9944 28.9401 31.9944 26.8764V19.3364" stroke="#86C226" stroke-width="2" stroke-linecap="round" stroke-linejoin="round"/>
<path d="M37.9084 22.3751V12.6251" stroke="#86C226" stroke-width="2" stroke-linecap="round" stroke-linejoin="round"/>
</svg>
