<svg width="33" height="33" viewBox="0 0 33 33" fill="none" xmlns="http://www.w3.org/2000/svg">
<path d="M24.5063 10.8517C24.4657 10.8517 24.4386 10.8517 24.398 10.8517H24.3304C21.7726 10.7705 19.8644 8.79465 19.8644 6.35865C19.8644 3.86852 21.8944 1.85205 24.371 1.85205C26.8476 1.85205 28.8776 3.88205 28.8776 6.35865C28.8641 8.80819 26.9558 10.7841 24.5198 10.8653C24.5198 10.8517 24.5198 10.8517 24.5063 10.8517ZM24.371 3.86852C23.0041 3.86852 21.8944 4.97826 21.8944 6.34513C21.8944 7.68493 22.9364 8.7676 24.2762 8.82173C24.2898 8.8082 24.398 8.8082 24.5198 8.82173C25.8326 8.75406 26.8476 7.67139 26.8611 6.34513C26.8611 4.97826 25.7514 3.86852 24.371 3.86852Z" fill="#D3F59C"/>
<path d="M24.5201 20.8258C23.9923 20.8258 23.4645 20.7852 22.9367 20.6904C22.3819 20.5957 22.0165 20.0679 22.1112 19.513C22.2059 18.9582 22.7337 18.5928 23.2886 18.6875C24.9532 18.9717 26.7125 18.6604 27.8899 17.8755C28.526 17.456 28.8643 16.9282 28.8643 16.4004C28.8643 15.8726 28.5125 15.3583 27.8899 14.9388C26.7125 14.1538 24.9261 13.8426 23.248 14.1403C22.6931 14.2486 22.1653 13.8696 22.0706 13.3148C21.9759 12.7599 22.3413 12.2321 22.8961 12.1374C25.1021 11.7449 27.3892 12.1644 29.0132 13.2471C30.2041 14.0456 30.8943 15.1824 30.8943 16.4004C30.8943 17.6048 30.2177 18.7552 29.0132 19.5672C27.7817 20.3792 26.1847 20.8258 24.5201 20.8258Z" fill="#D3F59C"/>
<path d="M8.22599 10.8516C8.21246 10.8516 8.19892 10.8516 8.19892 10.8516C5.76292 10.7704 3.85472 8.79451 3.84119 6.35851C3.84119 3.86837 5.87119 1.83838 8.34779 1.83838C10.8244 1.83838 12.8544 3.86838 12.8544 6.34498C12.8544 8.79451 10.9462 10.7704 8.51019 10.8516L8.22599 9.83658L8.32072 10.8516C8.29365 10.8516 8.25306 10.8516 8.22599 10.8516ZM8.36132 8.82158C8.44252 8.82158 8.51019 8.82158 8.59139 8.83511C9.79586 8.78098 10.8515 7.69831 10.8515 6.35851C10.8515 4.99164 9.74172 3.8819 8.37486 3.8819C7.00799 3.8819 5.89825 4.99164 5.89825 6.35851C5.89825 7.68477 6.92679 8.75391 8.23952 8.83511C8.25305 8.82158 8.30719 8.82158 8.36132 8.82158Z" fill="#D3F59C"/>
<path d="M8.21246 20.8258C6.54786 20.8258 4.95092 20.3792 3.71939 19.5672C2.52846 18.7687 1.83826 17.6184 1.83826 16.4004C1.83826 15.1959 2.52846 14.0456 3.71939 13.2471C5.34339 12.1644 7.63052 11.7449 9.83646 12.1374C10.3913 12.2321 10.7567 12.7599 10.662 13.3148C10.5673 13.8696 10.0395 14.2486 9.48459 14.1403C7.80646 13.8426 6.03359 14.1538 4.84266 14.9388C4.20659 15.3583 3.86826 15.8726 3.86826 16.4004C3.86826 16.9282 4.22013 17.456 4.84266 17.8755C6.02006 18.6604 7.77939 18.9717 9.44399 18.6875C9.99886 18.5928 10.5267 18.9717 10.6214 19.513C10.7161 20.0679 10.3507 20.5957 9.79586 20.6904C9.26806 20.7852 8.74026 20.8258 8.21246 20.8258Z" fill="#D3F59C"/>
<path d="M16.3863 20.9609C16.3457 20.9609 16.3186 20.9609 16.278 20.9609H16.2104C13.6526 20.8797 11.7444 18.9038 11.7444 16.4678C11.7444 13.9777 13.7744 11.9612 16.251 11.9612C18.7276 11.9612 20.7576 13.9912 20.7576 16.4678C20.7441 18.9173 18.8358 20.8932 16.3998 20.9744C16.3998 20.9609 16.3999 20.9609 16.3863 20.9609ZM16.251 13.9777C14.8841 13.9777 13.7744 15.0874 13.7744 16.4543C13.7744 17.7941 14.8165 18.8767 16.1563 18.9309C16.1698 18.9173 16.278 18.9173 16.3998 18.9309C17.7126 18.8632 18.7276 17.7805 18.7411 16.4543C18.7411 15.1009 17.6314 13.9777 16.251 13.9777Z" fill="#D3F59C"/>
<path d="M16.3863 30.9485C14.7623 30.9485 13.1383 30.5289 11.8797 29.6763C10.6887 28.8779 9.99854 27.7411 9.99854 26.5231C9.99854 25.3186 10.6752 24.1547 11.8797 23.3563C14.4104 21.6781 18.3757 21.6781 20.8929 23.3563C22.0838 24.1547 22.774 25.2915 22.774 26.5095C22.774 27.714 22.0973 28.8779 20.8929 29.6763C19.6343 30.5154 18.0103 30.9485 16.3863 30.9485ZM13.0029 25.0615C12.3669 25.481 12.0285 26.0088 12.0285 26.5366C12.0285 27.0644 12.3804 27.5787 13.0029 27.9982C14.8299 29.2297 17.9291 29.2297 19.7561 27.9982C20.3921 27.5787 20.7305 27.0509 20.7305 26.5231C20.7305 25.9953 20.3786 25.481 19.7561 25.0615C17.9426 23.8299 14.8435 23.8435 13.0029 25.0615Z" fill="#D3F59C"/>
</svg>
