<svg width="33" height="33" viewBox="0 0 33 33" fill="none" xmlns="http://www.w3.org/2000/svg">
<path d="M6.91336 29.744C5.9119 29.744 4.92396 29.3651 4.1661 28.6072C3.4353 27.8764 3.0293 26.902 3.0293 25.86C3.0293 24.8179 3.4353 23.8435 4.1661 23.1127L21.7594 5.51937C23.2752 4.00364 25.7382 4.00364 27.254 5.51937C27.9848 6.25017 28.3908 7.22457 28.3908 8.26664C28.3908 9.3087 27.9848 10.2831 27.254 11.0139L9.66063 28.6072C8.90276 29.3651 7.91483 29.744 6.91336 29.744ZM24.5067 6.41257C24.033 6.41257 23.5594 6.5885 23.194 6.9539L5.60063 24.5472C5.24876 24.8991 5.0593 25.3592 5.0593 25.86C5.0593 26.3607 5.24876 26.8208 5.60063 27.1727C6.3179 27.89 7.50883 27.89 8.2261 27.1727L25.8194 9.57937C26.1713 9.2275 26.3608 8.76737 26.3608 8.26664C26.3608 7.7659 26.1713 7.30577 25.8194 6.9539C25.454 6.5885 24.9804 6.41257 24.5067 6.41257Z" fill="#D3F59C"/>
<path d="M24.5202 13.3283C24.2631 13.3283 24.006 13.2336 23.803 13.0306L19.743 8.97058C19.3505 8.57812 19.3505 7.92852 19.743 7.53605C20.1354 7.14358 20.785 7.14358 21.1775 7.53605L25.2375 11.596C25.63 11.9885 25.63 12.6381 25.2375 13.0306C25.0345 13.2336 24.7774 13.3283 24.5202 13.3283Z" fill="#D3F59C"/>
<path d="M13.68 7.59006C13.6123 7.59006 13.5582 7.57653 13.4905 7.56299L11.65 7.02166L9.80946 7.56299C9.56586 7.63066 9.30873 7.56299 9.14633 7.38706C8.97039 7.21113 8.90273 6.96753 8.97039 6.72393L9.51173 4.88339L8.97039 3.04286C8.90273 2.79926 8.97039 2.54213 9.14633 2.37973C9.32226 2.20379 9.57939 2.13613 9.80946 2.20379L11.65 2.74513L13.4905 2.20379C13.7341 2.13613 13.9777 2.20379 14.1537 2.37973C14.3296 2.55566 14.3973 2.81279 14.3296 3.04286L13.7883 4.88339L14.3296 6.72393C14.3973 6.96753 14.3296 7.22466 14.1537 7.38706C14.0319 7.52239 13.8559 7.59006 13.68 7.59006ZM11.65 5.64126C11.7177 5.64126 11.7718 5.65479 11.8395 5.66833L12.6785 5.91193L12.4349 5.07286C12.3943 4.95106 12.3943 4.81573 12.4349 4.69393L12.6785 3.85486L11.8395 4.09846C11.7177 4.13906 11.5823 4.13906 11.4605 4.09846L10.6215 3.85486L10.8651 4.69393C10.9057 4.81573 10.9057 4.95106 10.8651 5.07286L10.6215 5.91193L11.4605 5.66833C11.5282 5.65479 11.5823 5.64126 11.65 5.64126Z" fill="#D3F59C"/>
<path d="M8.26666 15.7102C8.199 15.7102 8.14487 15.6966 8.0772 15.6831L6.23666 15.1418L4.39613 15.6831C4.15253 15.7508 3.90893 15.6831 3.733 15.5072C3.55706 15.3312 3.4894 15.0741 3.55706 14.844L4.0984 13.0035L3.55706 11.163C3.4894 10.9194 3.55706 10.6622 3.733 10.4998C3.90893 10.3374 4.16606 10.2562 4.39613 10.3239L6.23666 10.8652L8.0772 10.3239C8.30726 10.2562 8.5644 10.3239 8.74033 10.4998C8.91626 10.6758 8.98393 10.9329 8.91627 11.163L8.37493 13.0035L8.91627 14.844C8.98393 15.0876 8.91626 15.3448 8.74033 15.5072C8.61853 15.6425 8.4426 15.7102 8.26666 15.7102ZM6.23666 13.7614C6.30433 13.7614 6.35846 13.7749 6.42613 13.7884L7.2652 14.032L7.0216 13.193C6.981 13.0712 6.981 12.9358 7.0216 12.814L7.2652 11.975L6.42613 12.2186C6.30433 12.2592 6.169 12.2592 6.0472 12.2186L5.20813 11.975L5.45173 12.814C5.49233 12.9358 5.49233 13.0712 5.45173 13.193L5.20813 14.032L6.0472 13.7884C6.11486 13.7749 6.169 13.7614 6.23666 13.7614Z" fill="#D3F59C"/>
<path d="M28.5667 22.4768C28.499 22.4768 28.4449 22.4632 28.3772 22.4497L26.5367 21.9084L24.6961 22.4497C24.4525 22.5174 24.2089 22.4497 24.033 22.2738C23.8571 22.0978 23.7894 21.8407 23.8571 21.6106L24.3984 19.7701L23.8571 17.9296C23.7894 17.686 23.8571 17.4288 24.033 17.2664C24.2089 17.104 24.4661 17.0228 24.6961 17.0905L26.5367 17.6318L28.3772 17.0905C28.6073 17.0228 28.8644 17.0905 29.0403 17.2664C29.2163 17.4424 29.2839 17.6995 29.2163 17.9296L28.6749 19.7701L29.2163 21.6106C29.2839 21.8542 29.2163 22.1114 29.0403 22.2738C28.9185 22.4091 28.7426 22.4768 28.5667 22.4768ZM26.5367 20.528C26.6043 20.528 26.6585 20.5415 26.7261 20.555L27.5652 20.7986L27.3216 19.9596C27.281 19.8378 27.281 19.7024 27.3216 19.5806L27.5652 18.7416L26.7261 18.9852C26.6043 19.0258 26.469 19.0258 26.3472 18.9852L25.5081 18.7416L25.7517 19.5806C25.7923 19.7024 25.7923 19.8378 25.7517 19.9596L25.5081 20.7986L26.3472 20.555C26.4149 20.5415 26.469 20.528 26.5367 20.528Z" fill="#D3F59C"/>
</svg>
