<svg width="33" height="33" viewBox="0 0 33 33" fill="none" xmlns="http://www.w3.org/2000/svg">
<path d="M10.9733 30.9352C5.93892 30.9352 1.83832 26.8346 1.83832 21.8002C1.83832 17.686 4.59912 14.0591 8.56438 12.99C9.06512 12.8546 9.57938 13.1118 9.76885 13.599C10.5944 15.6696 12.3537 17.253 14.5055 17.8349C15.6965 18.1597 17.0769 18.1597 18.2407 17.8349C18.7415 17.6996 19.2693 17.9567 19.4587 18.4439C19.8783 19.513 20.0948 20.6498 20.0948 21.8137C20.0948 24.4121 18.9851 26.8887 17.0498 28.6074C15.3987 30.0961 13.2334 30.9352 10.9733 30.9352ZM8.29372 15.2094C5.65472 16.2921 3.86832 18.8905 3.86832 21.8002C3.86832 25.7113 7.06218 28.9052 10.9733 28.9052C12.7327 28.9052 14.4108 28.2556 15.71 27.0782C17.2257 25.7384 18.0783 23.8166 18.0783 21.8002C18.0783 21.1776 17.9971 20.5822 17.8483 20.0002C16.5761 20.2032 15.1957 20.1356 13.9777 19.7972C11.5282 19.1206 9.47112 17.4424 8.29372 15.2094Z" fill="#D3F59C"/>
<path d="M16.3866 20.1084C15.5476 20.1084 14.7356 20.0001 13.9777 19.7836C11.2304 19.0257 8.94331 16.9957 7.88771 14.3296C7.46818 13.274 7.25165 12.1372 7.25165 10.9734C7.25165 5.93898 11.3522 1.83838 16.3866 1.83838C21.421 1.83838 25.5216 5.93898 25.5216 10.9734C25.5216 12.1372 25.3051 13.274 24.8856 14.3432C23.83 16.9957 21.5564 19.0392 18.7956 19.7971C18.0377 20.0001 17.2257 20.1084 16.3866 20.1084ZM16.3866 3.86838C12.4755 3.86838 9.28165 7.06225 9.28165 10.9734C9.28165 11.8801 9.44405 12.7598 9.78238 13.5853C10.6079 15.6559 12.3672 17.2393 14.519 17.8212C15.71 18.146 17.0904 18.146 18.2542 17.8212C20.406 17.2393 22.1789 15.6424 22.9909 13.5853C23.3157 12.7598 23.4916 11.8801 23.4916 10.9734C23.4916 7.06225 20.2978 3.86838 16.3866 3.86838Z" fill="#D3F59C"/>
<path d="M21.8 30.935C19.5399 30.935 17.3746 30.0959 15.71 28.5937C15.4934 28.4042 15.3716 28.12 15.3716 27.8358C15.3716 27.5516 15.4934 27.2674 15.71 27.078C17.2122 25.7517 18.0783 23.83 18.0783 21.8C18.0783 20.8932 17.9159 20.0136 17.5776 19.188C17.4693 18.9174 17.4828 18.6196 17.6182 18.3625C17.7535 18.1054 17.9836 17.9159 18.2542 17.8347C20.406 17.2528 22.1654 15.6694 22.9909 13.5988C23.1804 13.1116 23.7082 12.868 24.1954 12.9898C28.1606 14.0724 30.9214 17.6858 30.9214 21.8C30.935 26.8344 26.8344 30.935 21.8 30.935ZM17.9024 27.7411C19.0527 28.499 20.3925 28.905 21.8 28.905C25.7111 28.905 28.905 25.7111 28.905 21.8C28.905 18.8903 27.1186 16.2919 24.4796 15.2092C23.4781 17.1174 21.8 18.6332 19.797 19.4452C20 20.203 20.1083 21.0015 20.1083 21.8C20.1083 23.9924 19.3234 26.1036 17.9024 27.7411Z" fill="#D3F59C"/>
</svg>
