<svg width="33" height="33" viewBox="0 0 33 33" fill="none" xmlns="http://www.w3.org/2000/svg">
<path d="M21.8 22.8152H10.9733C10.4184 22.8152 9.95831 22.355 9.95831 21.8002V10.9735C9.95831 10.4186 10.4184 9.9585 10.9733 9.9585H21.8C22.3548 9.9585 22.815 10.4186 22.815 10.9735V21.8002C22.815 22.355 22.3548 22.8152 21.8 22.8152ZM11.9883 20.7852H20.785V11.9885H11.9883V20.7852Z" fill="#D3F59C"/>
<path d="M6.91332 30.9352C4.11192 30.9352 1.83832 28.6616 1.83832 25.8602C1.83832 23.0588 4.11192 20.7852 6.91332 20.7852H10.9733C11.5282 20.7852 11.9883 21.2453 11.9883 21.8002V25.8602C11.9883 28.6616 9.71472 30.9352 6.91332 30.9352ZM6.91332 22.8152C5.23518 22.8152 3.86832 24.182 3.86832 25.8602C3.86832 27.5383 5.23518 28.9052 6.91332 28.9052C8.59145 28.9052 9.95832 27.5383 9.95832 25.8602V22.8152H6.91332Z" fill="#D3F59C"/>
<path d="M10.9733 11.9884H6.91332C4.11192 11.9884 1.83832 9.71478 1.83832 6.91338C1.83832 4.11198 4.11192 1.83838 6.91332 1.83838C9.71472 1.83838 11.9883 4.11198 11.9883 6.91338V10.9734C11.9883 11.5282 11.5282 11.9884 10.9733 11.9884ZM6.91332 3.86838C5.23518 3.86838 3.86832 5.23525 3.86832 6.91338C3.86832 8.59151 5.23518 9.95838 6.91332 9.95838H9.95832V6.91338C9.95832 5.23525 8.59145 3.86838 6.91332 3.86838Z" fill="#D3F59C"/>
<path d="M25.86 11.9884H21.8C21.2451 11.9884 20.785 11.5282 20.785 10.9734V6.91338C20.785 4.11198 23.0586 1.83838 25.86 1.83838C28.6614 1.83838 30.935 4.11198 30.935 6.91338C30.935 9.71478 28.6614 11.9884 25.86 11.9884ZM22.815 9.95838H25.86C27.5381 9.95838 28.905 8.59151 28.905 6.91338C28.905 5.23525 27.5381 3.86838 25.86 3.86838C24.1818 3.86838 22.815 5.23525 22.815 6.91338V9.95838Z" fill="#D3F59C"/>
<path d="M25.86 30.9352C23.0586 30.9352 20.785 28.6616 20.785 25.8602V21.8002C20.785 21.2453 21.2451 20.7852 21.8 20.7852H25.86C28.6614 20.7852 30.935 23.0588 30.935 25.8602C30.935 28.6616 28.6614 30.9352 25.86 30.9352ZM22.815 22.8152V25.8602C22.815 27.5383 24.1818 28.9052 25.86 28.9052C27.5381 28.9052 28.905 27.5383 28.905 25.8602C28.905 24.182 27.5381 22.8152 25.86 22.8152H22.815Z" fill="#D3F59C"/>
</svg>
