<svg width="33" height="33" viewBox="0 0 33 33" fill="none" xmlns="http://www.w3.org/2000/svg">
<path d="M16.3867 30.9351C15.5747 30.9351 14.7762 30.7456 14.1266 30.3802L7.72532 26.6856C5.07278 24.8992 4.89685 24.5744 4.89685 21.773V15.0605C4.89685 12.2591 5.07278 11.9343 7.67118 10.1885L14.1401 6.45327C15.4258 5.70894 17.3611 5.70894 18.6467 6.45327L25.048 10.1479C27.7005 11.9343 27.8764 12.2591 27.8764 15.0605V21.773C27.8764 24.5744 27.7005 24.8992 25.1021 26.645L18.6332 30.3802C17.9971 30.7591 17.1851 30.9351 16.3867 30.9351ZM16.3867 7.9284C15.9265 7.9284 15.4664 8.02314 15.1416 8.2126L8.74032 11.9072C6.92685 13.1387 6.92685 13.1387 6.92685 15.0605V21.773C6.92685 23.6947 6.92685 23.6947 8.80798 24.9669L15.1551 28.6209C15.8047 28.9998 16.9821 28.9998 17.6317 28.6209L24.033 24.9263C25.8465 23.6947 25.8465 23.6947 25.8465 21.773V15.0605C25.8465 13.1387 25.8465 13.1387 23.9653 11.8666L17.6182 8.2126C17.3069 8.02314 16.8468 7.9284 16.3867 7.9284Z" fill="#D3F59C"/>
<path d="M23.8299 11.4876C23.275 11.4876 22.8149 11.0275 22.8149 10.4726V6.91338C22.8149 4.77511 21.9082 3.86838 19.7699 3.86838H13.0032C10.865 3.86838 9.95822 4.77511 9.95822 6.91338V10.3779C9.95822 10.9328 9.49809 11.3929 8.94322 11.3929C8.38836 11.3929 7.92822 10.9463 7.92822 10.3779V6.91338C7.92822 3.63831 9.72816 1.83838 13.0032 1.83838H19.7699C23.045 1.83838 24.8449 3.63831 24.8449 6.91338V10.4726C24.8449 11.0275 24.3848 11.4876 23.8299 11.4876Z" fill="#D3F59C"/>
<path d="M18.5926 24.006C18.3084 24.006 18.0107 23.9519 17.7129 23.8301L16.3867 23.3158L15.0604 23.8436C14.3431 24.1278 13.6123 24.0601 13.071 23.6677C12.5297 23.2752 12.2455 22.5986 12.2861 21.8272L12.3673 20.4062L11.4605 19.3099C10.9733 18.7009 10.8109 17.9972 11.0275 17.3476C11.2305 16.7116 11.7853 16.2243 12.5297 16.0349L13.9101 15.683L14.6815 14.4786C15.507 13.1794 17.2799 13.1794 18.1054 14.4786L18.8768 15.683L20.2572 16.0349C21.0015 16.2243 21.5564 16.7116 21.7594 17.3476C21.9624 17.9837 21.8 18.7009 21.3128 19.2964L20.4061 20.3926L20.4873 21.8136C20.5279 22.585 20.2437 23.2482 19.7023 23.6542C19.3775 23.8842 18.9986 24.006 18.5926 24.006ZM13.0304 18.0107L13.9371 19.107C14.2484 19.4724 14.4243 20.0543 14.3973 20.528L14.3161 21.949L15.6423 21.4212C16.0889 21.2452 16.6844 21.2452 17.131 21.4212L18.4573 21.949L18.3761 20.528C18.349 20.0543 18.5249 19.4859 18.8362 19.107L19.7429 18.0107L18.3625 17.6589C17.9024 17.5371 17.4152 17.1852 17.1581 16.7928L16.4002 15.6018L15.6288 16.7928C15.3717 17.1988 14.8845 17.5506 14.4243 17.6724L13.0304 18.0107Z" fill="#D3F59C"/>
</svg>
